REM MD5 6b9efe30c134cfb2d0c85f6e36a4300d
FILE "Mobile Tomodachi (Japan).bin" BINARY
  TRACK 01 MODE2/2352
    INDEX 01 00:00:00
  TRACK 02 AUDIO
    INDEX 00 01:47:50
    INDEX 01 01:49:50
  TRACK 03 AUDIO
    INDEX 00 02:50:49
    INDEX 01 02:52:49
  TRACK 04 AUDIO
    INDEX 00 05:01:12
    INDEX 01 05:03:12
  TRACK 05 AUDIO
    INDEX 00 05:21:13
    INDEX 01 05:23:13
REM LEADOUT 08:43:13
